<svg width="164" height="21" viewBox="0 0 164 21" fill="none" xmlns="http://www.w3.org/2000/svg">
<path d="M0 20.642V0.278409H14.1989V4.27557H4.92188V8.4517H13.473V12.4588H4.92188V16.6449H14.1989V20.642H0Z" fill="#8678EA"/>
<path d="M22.2628 0.278409L25.9815 6.71165H26.1406L29.8991 0.278409H35.4077L29.2628 10.4602L35.6065 20.642H29.9588L26.1406 14.1392H25.9815L22.1634 20.642H16.5554L22.8693 10.4602L16.7145 0.278409H22.2628Z" fill="#8678EA"/>
<path d="M37.9531 20.642V0.278409H46.3651C47.8897 0.278409 49.2055 0.576705 50.3125 1.1733C51.4261 1.76326 52.2846 2.58854 52.8878 3.64915C53.491 4.70313 53.7926 5.92945 53.7926 7.32812C53.7926 8.73343 53.4844 9.96307 52.8679 11.017C52.258 12.0644 51.3864 12.8764 50.2528 13.4531C49.1193 14.0298 47.7737 14.3182 46.2159 14.3182H41.0256V10.4403H45.3011C46.0436 10.4403 46.6634 10.3111 47.1605 10.0526C47.6643 9.79403 48.0455 9.43277 48.304 8.96875C48.5625 8.49811 48.6918 7.95123 48.6918 7.32812C48.6918 6.69839 48.5625 6.15483 48.304 5.69744C48.0455 5.23343 47.6643 4.87547 47.1605 4.62358C46.6567 4.37169 46.0369 4.24574 45.3011 4.24574H42.875V20.642H37.9531Z" fill="#8678EA"/>
<path d="M56.2188 20.642V0.278409H70.4176V4.27557H61.1406V8.4517H69.6918V12.4588H61.1406V16.6449H70.4176V20.642H56.2188Z" fill="#8678EA"/>
<path d="M90.831 0.278409V20.642H86.6548L78.5511 8.8892H78.4219V20.642H73.5V0.278409H77.7358L85.75 12.0114H85.919V0.278409H90.831Z" fill="#8678EA"/>
<path d="M104.933 6.38352C104.867 5.65436 104.572 5.08759 104.048 4.68324C103.531 4.27225 102.792 4.06676 101.831 4.06676C101.194 4.06676 100.664 4.14962 100.24 4.31534C99.8155 4.48106 99.4973 4.70975 99.2852 5.00142C99.073 5.28646 98.9637 5.61458 98.957 5.9858C98.9438 6.29072 99.0034 6.55919 99.136 6.79119C99.2752 7.0232 99.4741 7.22869 99.7326 7.40767C99.9978 7.58002 100.316 7.73248 100.687 7.86506C101.058 7.99763 101.476 8.11364 101.94 8.21307L103.69 8.6108C104.698 8.82955 105.586 9.12121 106.355 9.4858C107.13 9.85038 107.78 10.2846 108.304 10.7884C108.834 11.2921 109.235 11.8722 109.507 12.5284C109.779 13.1847 109.918 13.9205 109.924 14.7358C109.918 16.0218 109.593 17.1255 108.95 18.0469C108.307 18.9683 107.382 19.6742 106.176 20.1648C104.976 20.6553 103.528 20.9006 101.831 20.9006C100.127 20.9006 98.6422 20.6454 97.3761 20.1349C96.11 19.6245 95.1256 18.849 94.4229 17.8082C93.7203 16.7675 93.359 15.4517 93.3391 13.8608H98.0522C98.092 14.517 98.2676 15.0639 98.5792 15.5014C98.8907 15.9389 99.3183 16.2704 99.8619 16.4957C100.412 16.7211 101.048 16.8338 101.771 16.8338C102.434 16.8338 102.997 16.7443 103.461 16.5653C103.932 16.3864 104.293 16.1378 104.545 15.8196C104.797 15.5014 104.926 15.1368 104.933 14.7259C104.926 14.3414 104.807 14.0133 104.575 13.7415C104.343 13.4631 103.985 13.2244 103.501 13.0256C103.024 12.8201 102.414 12.6312 101.672 12.4588L99.5437 11.9616C97.7804 11.5573 96.3917 10.9044 95.3775 10.0028C94.3633 9.0947 93.8595 7.86837 93.8661 6.32386C93.8595 5.06439 94.1976 3.9607 94.8803 3.01278C95.5631 2.06487 96.5077 1.32576 97.7141 0.795455C98.9206 0.265151 100.296 0 101.841 0C103.418 0 104.787 0.268466 105.947 0.805397C107.114 1.3357 108.019 2.08144 108.662 3.04261C109.305 4.00379 109.633 5.11742 109.646 6.38352H104.933Z" fill="#8678EA"/>
<path d="M112.41 20.642V0.278409H126.609V4.27557H117.332V8.4517H125.883V12.4588H117.332V16.6449H126.609V20.642H112.41Z" fill="#8678EA"/>
<path d="M129.691 20.642V0.278409H138.103C139.628 0.278409 140.944 0.553504 142.051 1.10369C143.164 1.64725 144.023 2.42945 144.626 3.45028C145.229 4.46449 145.531 5.66761 145.531 7.05966C145.531 8.47159 145.223 9.6714 144.606 10.6591C143.99 11.6402 143.115 12.3892 141.981 12.9062C140.848 13.4167 139.505 13.6719 137.954 13.6719H132.635V9.79403H137.039C137.782 9.79403 138.402 9.69792 138.899 9.50568C139.403 9.30682 139.784 9.00852 140.042 8.6108C140.301 8.20644 140.43 7.68939 140.43 7.05966C140.43 6.42992 140.301 5.90956 140.042 5.49858C139.784 5.08097 139.403 4.76941 138.899 4.56392C138.395 4.3518 137.775 4.24574 137.039 4.24574H134.613V20.642H129.691ZM141.156 11.3352L146.227 20.642H140.858L135.886 11.3352H141.156Z" fill="#8678EA"/>
<path d="M153.033 11.5341V4.19602H156.583C157.1 4.19602 157.557 4.29545 157.955 4.49432C158.359 4.69318 158.671 4.97491 158.89 5.33949C159.115 5.70407 159.228 6.14157 159.228 6.65199C159.228 7.16903 159.112 7.60985 158.88 7.97443C158.648 8.33239 158.326 8.60748 157.915 8.79972C157.511 8.98532 157.043 9.07812 156.513 9.07812H154.127V7.63636H156.135C156.434 7.63636 156.676 7.5535 156.861 7.38778C157.047 7.22206 157.14 6.9768 157.14 6.65199C157.14 6.31392 157.047 6.06866 156.861 5.91619C156.676 5.7571 156.437 5.67756 156.145 5.67756H155.042V11.5341H153.033ZM157.806 8.1733L159.426 11.5341H157.229L155.738 8.1733H157.806ZM155.946 15.9091C154.846 15.9091 153.815 15.7036 152.854 15.2926C151.893 14.8816 151.048 14.3116 150.319 13.5824C149.589 12.8532 149.019 12.008 148.608 11.0469C148.197 10.0857 147.992 9.05492 147.992 7.95455C147.992 6.85417 148.197 5.82339 148.608 4.86222C149.019 3.90104 149.589 3.05587 150.319 2.3267C151.048 1.59754 151.893 1.02746 152.854 0.616477C153.815 0.205492 154.846 0 155.946 0C157.047 0 158.078 0.205492 159.039 0.616477C160 1.02746 160.845 1.59754 161.574 2.3267C162.303 3.05587 162.873 3.90104 163.284 4.86222C163.695 5.82339 163.901 6.85417 163.901 7.95455C163.901 9.05492 163.695 10.0857 163.284 11.0469C162.873 12.008 162.303 12.8532 161.574 13.5824C160.845 14.3116 160 14.8816 159.039 15.2926C158.078 15.7036 157.047 15.9091 155.946 15.9091ZM155.946 13.7415C157.02 13.7415 157.995 13.483 158.87 12.9659C159.745 12.4422 160.441 11.7429 160.958 10.8679C161.481 9.9929 161.743 9.02178 161.743 7.95455C161.743 6.88731 161.481 5.91619 160.958 5.04119C160.441 4.16619 159.741 3.47017 158.86 2.95312C157.985 2.42945 157.014 2.16761 155.946 2.16761C154.879 2.16761 153.908 2.42945 153.033 2.95312C152.158 3.47017 151.459 4.16619 150.935 5.04119C150.418 5.91619 150.159 6.88731 150.159 7.95455C150.159 9.02178 150.418 9.9929 150.935 10.8679C151.459 11.7429 152.158 12.4422 153.033 12.9659C153.908 13.483 154.879 13.7415 155.946 13.7415Z" fill="#8678EA"/>
</svg>
